<svg width="17" height="18" viewBox="0 0 17 18" fill="none" xmlns="http://www.w3.org/2000/svg">
<g clip-path="url(#clip0_120_883)">
<path d="M14.328 3.97376C13.249 3.48716 12.0925 3.12749 10.883 2.92298C10.8722 2.92091 10.8611 2.92224 10.8511 2.92679C10.8411 2.93134 10.8328 2.93888 10.8273 2.94837C10.6792 3.20859 10.5142 3.54781 10.3985 3.81579C9.11579 3.62414 7.8117 3.62414 6.52897 3.81579C6.40015 3.51879 6.25488 3.2292 6.09384 2.94837C6.08838 2.93876 6.08013 2.93105 6.07017 2.92627C6.06022 2.92148 6.04904 2.91984 6.03813 2.92157C4.82938 3.12608 3.67281 3.48575 2.59311 3.97306C2.58382 3.97695 2.57595 3.9836 2.57054 3.9921C0.375888 7.2185 -0.225668 10.3652 0.0698204 13.4724C0.0706427 13.48 0.0730049 13.4874 0.0767633 13.4941C0.0805217 13.5007 0.0855977 13.5066 0.0916824 13.5112C1.37265 14.4438 2.80139 15.1543 4.31809 15.6128C4.32866 15.616 4.33997 15.616 4.35054 15.6128C4.36111 15.6095 4.37044 15.6031 4.37733 15.5944C4.7037 15.158 4.99292 14.6949 5.24193 14.2101C5.24539 14.2035 5.24738 14.1962 5.24777 14.1887C5.24817 14.1812 5.24695 14.1738 5.24421 14.1668C5.24147 14.1599 5.23726 14.1536 5.23188 14.1484C5.2265 14.1432 5.22007 14.1392 5.21302 14.1367C4.75745 13.9652 4.31603 13.7582 3.89284 13.5176C3.88524 13.5132 3.87883 13.5071 3.87419 13.4996C3.86955 13.4922 3.86683 13.4837 3.86628 13.475C3.86572 13.4663 3.86734 13.4575 3.87099 13.4496C3.87464 13.4416 3.88021 13.4347 3.8872 13.4294C3.97606 13.3638 4.06491 13.2954 4.14954 13.227C4.15716 13.2209 4.16633 13.2169 4.17605 13.2157C4.18576 13.2144 4.19563 13.2159 4.20455 13.22C6.97396 14.464 9.97328 14.464 12.7103 13.22C12.7192 13.2157 12.7292 13.214 12.739 13.2151C12.7489 13.2163 12.7582 13.2201 12.766 13.2263C12.8506 13.2954 12.9387 13.3638 13.0283 13.4294C13.0354 13.4346 13.041 13.4414 13.0448 13.4493C13.0486 13.4572 13.0503 13.4659 13.0499 13.4746C13.0495 13.4834 13.0469 13.4918 13.0424 13.4993C13.0379 13.5068 13.0316 13.5131 13.0241 13.5176C12.6024 13.7602 12.1637 13.9654 11.7032 14.136C11.6961 14.1386 11.6897 14.1427 11.6843 14.1479C11.6789 14.1532 11.6747 14.1595 11.672 14.1665C11.6692 14.1735 11.668 14.181 11.6684 14.1886C11.6688 14.1961 11.6708 14.2034 11.6743 14.2101C11.9282 14.6946 12.2187 15.1558 12.5382 15.5937C12.5448 15.6027 12.5541 15.6094 12.5647 15.613C12.5753 15.6165 12.5867 15.6167 12.5974 15.6135C14.1167 15.1562 15.5478 14.4455 16.8302 13.5112C16.8364 13.5068 16.8417 13.5012 16.8456 13.4946C16.8495 13.488 16.8519 13.4807 16.8527 13.4731C17.2054 9.88072 16.2618 6.7594 14.3499 3.99351C14.3452 3.98452 14.3375 3.97751 14.328 3.97376ZM5.6559 11.5803C4.82232 11.5803 4.13473 10.8264 4.13473 9.90187C4.13473 8.97662 4.80893 8.22344 5.6559 8.22344C6.50922 8.22344 7.19047 8.98297 7.17707 9.90187C7.17707 10.8271 6.50287 11.5803 5.6559 11.5803V11.5803ZM11.2801 11.5803C10.4458 11.5803 9.75889 10.8264 9.75889 9.90187C9.75889 8.97662 10.4324 8.22344 11.2801 8.22344C12.1334 8.22344 12.8146 8.98297 12.8012 9.90187C12.8012 10.8271 12.1341 11.5803 11.2801 11.5803V11.5803Z" fill="white"/>
</g>
<defs>
<clipPath id="clip0_120_883">
<rect width="16.9254" height="16.9254" fill="white" transform="translate(0 0.805908)"/>
</clipPath>
</defs>
</svg>
