<svg width="17" height="18" viewBox="0 0 17 18" fill="none" xmlns="http://www.w3.org/2000/svg">
<g clip-path="url(#clip0_120_717)">
<path d="M14.328 3.97382C13.249 3.48722 12.0924 3.12755 10.883 2.92304C10.8722 2.92097 10.8611 2.9223 10.8511 2.92685C10.8411 2.9314 10.8328 2.93894 10.8273 2.94843C10.6792 3.20866 10.5142 3.54787 10.3985 3.81585C9.11576 3.6242 7.81167 3.6242 6.52894 3.81585C6.40012 3.51886 6.25485 3.22927 6.09381 2.94843C6.08835 2.93882 6.0801 2.93111 6.07014 2.92633C6.06019 2.92154 6.04901 2.9199 6.0381 2.92163C4.82935 3.12614 3.67278 3.48581 2.59308 3.97312C2.58379 3.97701 2.57592 3.98366 2.57051 3.99216C0.375857 7.21856 -0.225699 10.3653 0.0697899 13.4725C0.0706121 13.4801 0.0729744 13.4875 0.0767328 13.4941C0.0804912 13.5008 0.0855672 13.5066 0.0916518 13.5113C1.37262 14.4439 2.80136 15.1543 4.31806 15.6128C4.32863 15.6161 4.33994 15.6161 4.35051 15.6128C4.36108 15.6095 4.37041 15.6032 4.3773 15.5945C4.70367 15.158 4.99289 14.6949 5.2419 14.2101C5.24536 14.2035 5.24735 14.1962 5.24774 14.1888C5.24814 14.1813 5.24692 14.1738 5.24418 14.1669C5.24144 14.1599 5.23723 14.1536 5.23185 14.1485C5.22647 14.1433 5.22004 14.1393 5.21299 14.1368C4.75742 13.9652 4.316 13.7582 3.89281 13.5176C3.8852 13.5133 3.8788 13.5071 3.87416 13.4997C3.86952 13.4923 3.8668 13.4838 3.86625 13.4751C3.86569 13.4663 3.8673 13.4576 3.87096 13.4496C3.87461 13.4417 3.88018 13.4347 3.88717 13.4295C3.97603 13.3639 4.06488 13.2955 4.14951 13.2271C4.15713 13.2209 4.1663 13.217 4.17602 13.2158C4.18573 13.2145 4.19559 13.216 4.20452 13.22C6.97393 14.464 9.97325 14.464 12.7102 13.22C12.7192 13.2157 12.7291 13.2141 12.739 13.2152C12.7488 13.2163 12.7582 13.2202 12.7659 13.2264C12.8506 13.2955 12.9387 13.3639 13.0283 13.4295C13.0353 13.4346 13.041 13.4415 13.0448 13.4494C13.0485 13.4572 13.0503 13.4659 13.0499 13.4747C13.0494 13.4834 13.0469 13.4919 13.0424 13.4994C13.0379 13.5069 13.0316 13.5132 13.024 13.5176C12.6023 13.7602 12.1637 13.9654 11.7032 14.1361C11.6961 14.1387 11.6896 14.1427 11.6843 14.148C11.6789 14.1532 11.6747 14.1596 11.6719 14.1666C11.6692 14.1736 11.668 14.1811 11.6684 14.1886C11.6688 14.1961 11.6708 14.2035 11.6743 14.2101C11.9281 14.6946 12.2187 15.1559 12.5381 15.5938C12.5448 15.6028 12.554 15.6095 12.5646 15.613C12.5752 15.6166 12.5867 15.6167 12.5974 15.6135C14.1167 15.1563 15.5478 14.4455 16.8301 13.5113C16.8364 13.5069 16.8416 13.5012 16.8455 13.4947C16.8494 13.4881 16.8519 13.4808 16.8527 13.4732C17.2053 9.88078 16.2617 6.75946 14.3499 3.99357C14.3452 3.98458 14.3374 3.97757 14.328 3.97382ZM5.65587 11.5804C4.82229 11.5804 4.1347 10.8265 4.1347 9.90193C4.1347 8.97668 4.80889 8.2235 5.65587 8.2235C6.50919 8.2235 7.19044 8.98303 7.17704 9.90193C7.17704 10.8272 6.50284 11.5804 5.65587 11.5804V11.5804ZM11.28 11.5804C10.4457 11.5804 9.75886 10.8265 9.75886 9.90193C9.75886 8.97668 10.4324 8.2235 11.28 8.2235C12.1334 8.2235 12.8146 8.98303 12.8012 9.90193C12.8012 10.8272 12.1341 11.5804 11.28 11.5804V11.5804Z" fill="#D841E3"/>
</g>
<defs>
<clipPath id="clip0_120_717">
<rect width="16.9254" height="16.9254" fill="white" transform="translate(0 0.805969)"/>
</clipPath>
</defs>
</svg>
