<svg width="17" height="18" viewBox="0 0 17 18" fill="none" xmlns="http://www.w3.org/2000/svg">
<path d="M14.7723 6.66285C14.7652 6.12873 14.6652 5.59991 14.4768 5.10007C14.3135 4.67845 14.064 4.29555 13.7442 3.97582C13.4245 3.6561 13.0416 3.40658 12.62 3.24322C12.1266 3.05799 11.6053 2.95784 11.0784 2.94702C10.3999 2.9167 10.1848 2.90823 8.46269 2.90823C6.74053 2.90823 6.51979 2.90823 5.84631 2.94702C5.31962 2.95792 4.79859 3.05807 4.30539 3.24322C3.88371 3.40647 3.50075 3.65594 3.18101 3.97568C2.86127 4.29542 2.61179 4.67839 2.44854 5.10007C2.26294 5.59311 2.16301 6.11426 2.15305 6.64098C2.12272 7.32011 2.11356 7.53521 2.11356 9.25736C2.11356 10.9795 2.11356 11.1996 2.15305 11.8737C2.16363 12.4013 2.26306 12.9217 2.44854 13.4161C2.61206 13.8376 2.86173 14.2204 3.18157 14.54C3.50142 14.8596 3.88442 15.109 4.3061 15.2722C4.79794 15.4649 5.31906 15.5722 5.84701 15.5896C6.52614 15.6199 6.74124 15.6291 8.46339 15.6291C10.1855 15.6291 10.4063 15.6291 11.0798 15.5896C11.6067 15.5792 12.128 15.4793 12.6214 15.2941C13.0429 15.1305 13.4257 14.8809 13.7454 14.5612C14.0651 14.2415 14.3147 13.8587 14.4782 13.4372C14.6637 12.9436 14.7632 12.4231 14.7737 11.8949C14.8041 11.2165 14.8132 11.0014 14.8132 9.27852C14.8118 7.55636 14.8118 7.33774 14.7723 6.66285V6.66285ZM8.45846 12.5141C6.65731 12.5141 5.1982 11.055 5.1982 9.25384C5.1982 7.4527 6.65731 5.99359 8.45846 5.99359C9.32313 5.99359 10.1524 6.33708 10.7638 6.94849C11.3752 7.55991 11.7187 8.38917 11.7187 9.25384C11.7187 10.1185 11.3752 10.9478 10.7638 11.5592C10.1524 12.1706 9.32313 12.5141 8.45846 12.5141V12.5141ZM11.8485 6.63323C11.7486 6.63332 11.6497 6.61372 11.5574 6.57555C11.4652 6.53737 11.3813 6.48138 11.3107 6.41077C11.2401 6.34015 11.1841 6.25631 11.1459 6.16403C11.1077 6.07175 11.0881 5.97286 11.0882 5.87299C11.0882 5.77321 11.1079 5.67439 11.1461 5.5822C11.1843 5.49001 11.2402 5.40624 11.3108 5.33568C11.3814 5.26512 11.4651 5.20915 11.5573 5.17096C11.6495 5.13277 11.7483 5.11312 11.8481 5.11312C11.9479 5.11312 12.0467 5.13277 12.1389 5.17096C12.2311 5.20915 12.3149 5.26512 12.3854 5.33568C12.456 5.40624 12.512 5.49001 12.5502 5.5822C12.5883 5.67439 12.608 5.77321 12.608 5.87299C12.608 6.29331 12.2681 6.63323 11.8485 6.63323Z" fill="#D841E3"/>
<path d="M8.45846 11.3716C9.62808 11.3716 10.5762 10.4235 10.5762 9.25383C10.5762 8.08421 9.62808 7.13605 8.45846 7.13605C7.28883 7.13605 6.34067 8.08421 6.34067 9.25383C6.34067 10.4235 7.28883 11.3716 8.45846 11.3716Z" fill="#D841E3"/>
</svg>
