<svg width="17" height="18" viewBox="0 0 17 18" fill="none" xmlns="http://www.w3.org/2000/svg">
<path d="M14.7723 6.66282C14.7652 6.12869 14.6652 5.59988 14.4768 5.10004C14.3135 4.67842 14.064 4.29552 13.7442 3.97579C13.4245 3.65607 13.0416 3.40655 12.62 3.24318C12.1266 3.05796 11.6053 2.95781 11.0784 2.94699C10.3999 2.91667 10.1848 2.9082 8.46269 2.9082C6.74053 2.9082 6.51979 2.9082 5.84631 2.94699C5.31962 2.95789 4.79859 3.05804 4.30539 3.24318C3.88371 3.40644 3.50075 3.65591 3.18101 3.97565C2.86127 4.29539 2.61179 4.67836 2.44854 5.10004C2.26294 5.59308 2.16301 6.11423 2.15305 6.64095C2.12272 7.32008 2.11356 7.53518 2.11356 9.25733C2.11356 10.9795 2.11356 11.1995 2.15305 11.8737C2.16363 12.4012 2.26306 12.9217 2.44854 13.416C2.61206 13.8376 2.86173 14.2204 3.18157 14.54C3.50142 14.8596 3.88442 15.109 4.3061 15.2722C4.79794 15.4649 5.31906 15.5722 5.84701 15.5895C6.52614 15.6199 6.74124 15.629 8.46339 15.629C10.1855 15.629 10.4063 15.629 11.0798 15.5895C11.6067 15.5792 12.128 15.4792 12.6214 15.294C13.0429 15.1305 13.4257 14.8809 13.7454 14.5612C14.0651 14.2415 14.3147 13.8587 14.4782 13.4372C14.6637 12.9435 14.7632 12.4231 14.7737 11.8949C14.8041 11.2164 14.8132 11.0014 14.8132 9.27849C14.8118 7.55633 14.8118 7.33771 14.7723 6.66282V6.66282ZM8.45846 12.5141C6.65731 12.5141 5.1982 11.0549 5.1982 9.25381C5.1982 7.45267 6.65731 5.99356 8.45846 5.99356C9.32313 5.99356 10.1524 6.33705 10.7638 6.94846C11.3752 7.55988 11.7187 8.38914 11.7187 9.25381C11.7187 10.1185 11.3752 10.9477 10.7638 11.5592C10.1524 12.1706 9.32313 12.5141 8.45846 12.5141V12.5141ZM11.8485 6.6332C11.7486 6.63329 11.6497 6.61369 11.5574 6.57552C11.4652 6.53734 11.3813 6.48135 11.3107 6.41074C11.2401 6.34012 11.1841 6.25628 11.1459 6.164C11.1077 6.07172 11.0881 5.97283 11.0882 5.87296C11.0882 5.77318 11.1079 5.67436 11.1461 5.58217C11.1843 5.48998 11.2402 5.40621 11.3108 5.33565C11.3814 5.26509 11.4651 5.20912 11.5573 5.17093C11.6495 5.13274 11.7483 5.11309 11.8481 5.11309C11.9479 5.11309 12.0467 5.13274 12.1389 5.17093C12.2311 5.20912 12.3149 5.26509 12.3854 5.33565C12.456 5.40621 12.512 5.48998 12.5502 5.58217C12.5883 5.67436 12.608 5.77318 12.608 5.87296C12.608 6.29328 12.2681 6.6332 11.8485 6.6332Z" fill="white"/>
<path d="M8.45846 11.3716C9.62808 11.3716 10.5762 10.4234 10.5762 9.25377C10.5762 8.08415 9.62808 7.13599 8.45846 7.13599C7.28883 7.13599 6.34067 8.08415 6.34067 9.25377C6.34067 10.4234 7.28883 11.3716 8.45846 11.3716Z" fill="white"/>
</svg>
