<svg width="9" height="49" viewBox="0 0 9 49" fill="none" xmlns="http://www.w3.org/2000/svg">
<path d="M4.32001 9.22594C6.70588 9.22594 8.64001 7.24284 8.64001 4.79657C8.64001 2.35029 6.70588 0.367188 4.32001 0.367188C1.93413 0.367188 0 2.35029 0 4.79657C0 7.24284 1.93413 9.22594 4.32001 9.22594Z" fill="white"/>
<path d="M4.32001 28.707C6.70588 28.707 8.64001 26.7239 8.64001 24.2776C8.64001 21.8313 6.70588 19.8482 4.32001 19.8482C1.93413 19.8482 0 21.8313 0 24.2776C0 26.7239 1.93413 28.707 4.32001 28.707Z" fill="white"/>
<path d="M4.32001 48.188C6.70588 48.188 8.64001 46.2049 8.64001 43.7587C8.64001 41.3124 6.70588 39.3293 4.32001 39.3293C1.93413 39.3293 0 41.3124 0 43.7587C0 46.2049 1.93413 48.188 4.32001 48.188Z" fill="white"/>
</svg>
