<svg width="24" height="24" viewBox="0 0 24 24" fill="none" xmlns="http://www.w3.org/2000/svg">
<path d="M2.04699 14.6679C2.08059 14.7948 2.13898 14.9138 2.21879 15.0179C2.2986 15.1221 2.39825 15.2095 2.51199 15.2749L4.42199 16.3789V18.5779C4.42199 18.8432 4.52735 19.0975 4.71489 19.285C4.90242 19.4726 5.15678 19.5779 5.42199 19.5779H7.62099L8.72499 21.4879C8.81353 21.6393 8.93993 21.765 9.09177 21.8526C9.24361 21.9403 9.41566 21.9869 9.59099 21.9879C9.76499 21.9879 9.93799 21.9419 10.092 21.8529L12 20.7499L13.91 21.8539C14.1396 21.9864 14.4124 22.0223 14.6685 21.9539C14.9245 21.8854 15.143 21.7182 15.276 21.4889L16.379 19.5789H18.578C18.8432 19.5789 19.0976 19.4736 19.2851 19.286C19.4726 19.0985 19.578 18.8442 19.578 18.5789V16.3799L21.488 15.2759C21.6018 15.2102 21.7015 15.1227 21.7814 15.0184C21.8613 14.9141 21.9199 14.795 21.9538 14.6681C21.9877 14.5411 21.9962 14.4087 21.9789 14.2785C21.9616 14.1482 21.9188 14.0227 21.853 13.9089L20.75 11.9999L21.854 10.0919C21.9867 9.86238 22.0228 9.58953 21.9543 9.33337C21.8859 9.07721 21.7185 8.85872 21.489 8.72594L19.579 7.62194V5.42194C19.579 5.15672 19.4736 4.90237 19.2861 4.71483C19.0986 4.5273 18.8442 4.42194 18.579 4.42194H16.38L15.277 2.51294C15.1438 2.28386 14.9257 2.11645 14.67 2.04694C14.5432 2.01256 14.4108 2.00369 14.2805 2.02086C14.1502 2.03802 14.0246 2.08088 13.911 2.14694L12 3.24994L10.091 2.14594C9.86144 2.01326 9.58858 1.97717 9.33242 2.04562C9.07626 2.11406 8.85777 2.28144 8.72499 2.51094L7.62099 4.42094H5.42199C5.15678 4.42094 4.90242 4.5263 4.71489 4.71384C4.52735 4.90137 4.42199 5.15573 4.42199 5.42094V7.61994L2.51199 8.72394C2.28256 8.85729 2.11532 9.07614 2.0469 9.33254C1.97849 9.58895 2.01448 9.86202 2.14699 10.0919L3.25099 11.9999L2.14699 13.9079C2.01498 14.1383 1.97905 14.4113 2.04699 14.6679ZM12 12.9999C8.51999 12.9999 7.99999 11.1209 7.99999 9.99994C7.99999 8.71294 9.02899 7.41694 11 7.08494V6.01194H13V7.12094C14.734 7.53094 15.4 8.97394 15.4 9.99994H14.4L13.4 10.0179C13.386 9.63794 13.185 8.99994 12 8.99994C10.701 8.99994 9.99999 9.51494 9.99999 9.99994C9.99999 10.3739 9.99999 10.9999 12 10.9999C15.48 10.9999 16 12.8789 16 13.9999C16 15.2869 14.971 16.5829 13 16.9149V17.9999H11V16.9199C8.66099 16.5529 7.99999 14.9169 7.99999 13.9999H9.99999C10.011 14.1429 10.159 14.9999 12 14.9999C13.38 14.9999 14 14.4149 14 13.9999C14 13.6749 14 12.9999 12 12.9999Z" fill="white"/>
</svg>
