<svg width="15" height="13" viewBox="0 0 15 13" fill="none" xmlns="http://www.w3.org/2000/svg">
<path d="M13.2248 2.65147C13.876 2.25171 14.3072 1.70607 14.5184 1.01213C13.9236 1.3338 13.2854 1.56754 12.6235 1.70607C12.0569 1.09675 11.3396 0.787262 10.4797 0.787262C9.63902 0.787262 8.92896 1.08225 8.34947 1.6561C8.06962 1.9286 7.84836 2.25537 7.69923 2.6164C7.55011 2.97742 7.47628 3.36509 7.48225 3.75565C7.48225 4.00469 7.51368 4.22714 7.57655 4.41574C5.09738 4.33111 3.04538 3.30269 1.42861 1.32323C1.15458 1.80762 1.01756 2.30087 1.01756 2.81105C1.01756 3.85962 1.46004 4.69058 2.34338 5.30069C1.83965 5.25798 1.39556 5.13064 1.01756 4.92189C1.01756 5.67064 1.23759 6.29607 1.67846 6.84655C2.10671 7.38295 2.71024 7.75134 3.38308 7.88705C3.13162 7.95153 2.86646 7.98216 2.59404 7.98216C2.34258 7.98216 2.16446 7.9612 2.05888 7.91526C2.24425 8.52538 2.59404 9.02025 3.09938 9.39905C3.59895 9.77838 4.20664 9.98819 4.83383 9.99789C3.76028 10.8401 2.53279 11.2568 1.1441 11.2568C0.80398 11.2568 0.562995 11.252 0.417114 11.2262C1.78485 12.1144 3.30732 12.5552 4.9918 12.5552C6.71577 12.5552 8.23905 12.1184 9.56488 11.2447C10.8907 10.3759 11.8691 9.30395 12.4978 8.0418C13.1195 6.82052 13.4432 5.4694 13.4424 4.09899V3.7218C14.0219 3.29457 14.5235 2.77085 14.9254 2.17353C14.3826 2.40876 13.8106 2.56953 13.2248 2.65147Z" fill="#D841E3"/>
</svg>
