<svg width="20" height="20" viewBox="0 0 20 20" fill="none" xmlns="http://www.w3.org/2000/svg">
<path d="M15.2248 5.65156C15.876 5.2518 16.3072 4.70616 16.5184 4.01222C15.9236 4.33389 15.2854 4.56763 14.6235 4.70616C14.0569 4.09685 13.3396 3.78735 12.4796 3.78735C11.639 3.78735 10.929 4.08234 10.3495 4.65619C10.0696 4.92869 9.84835 5.25546 9.69923 5.61649C9.55011 5.97751 9.47627 6.36518 9.48224 6.75574C9.48224 7.00479 9.51367 7.22723 9.57654 7.41583C7.09737 7.3312 5.04538 6.30279 3.4286 4.32332C3.15457 4.80771 3.01755 5.30097 3.01755 5.81114C3.01755 6.85971 3.46003 7.69067 4.34338 8.30079C3.83964 8.25807 3.39555 8.13073 3.01755 7.92198C3.01755 8.67073 3.23758 9.29616 3.67845 9.84664C4.10671 10.383 4.71024 10.7514 5.38308 10.8871C5.13161 10.9516 4.86645 10.9822 4.59403 10.9822C4.34257 10.9822 4.16445 10.9613 4.05887 10.9154C4.24424 11.5255 4.59403 12.0203 5.09938 12.3991C5.59895 12.7785 6.20663 12.9883 6.83382 12.998C5.76027 13.8402 4.53278 14.2569 3.14409 14.2569C2.80397 14.2569 2.56299 14.2521 2.41711 14.2263C3.78484 15.1145 5.30732 15.5553 6.99179 15.5553C8.71576 15.5553 10.239 15.1185 11.5649 14.2448C12.8907 13.376 13.8691 12.304 14.4978 11.0419C15.1195 9.82061 15.4432 8.46949 15.4424 7.09908V6.72189C16.0218 6.29467 16.5235 5.77094 16.9254 5.17362C16.3826 5.40885 15.8106 5.56962 15.2248 5.65156V5.65156Z" fill="white"/>
</svg>
