<svg width="19" height="19" viewBox="0 0 19 19" fill="none" xmlns="http://www.w3.org/2000/svg">
<g clip-path="url(#clip0_120_888)">
<path d="M18.148 5.38884C18.0404 5.02077 17.8352 4.68552 17.5524 4.41555C17.2695 4.14558 16.9186 3.95005 16.5336 3.84788C15.0882 3.47829 9.27793 3.47829 9.27793 3.47829C9.27793 3.47829 3.47865 3.46942 2.01825 3.84788C1.63384 3.9505 1.28359 4.14624 1.00138 4.41618C0.719169 4.68612 0.51453 5.02114 0.407246 5.38884C0.132778 6.80415 -0.00240222 8.24094 0.00347987 9.68038C0.000801755 11.1129 0.13596 12.5426 0.407246 13.9514C0.514878 14.3193 0.719577 14.6546 1.00169 14.925C1.28381 15.1954 1.63386 15.392 2.01825 15.4957C3.46359 15.8653 9.27793 15.8653 9.27793 15.8653C9.27793 15.8653 15.0737 15.8653 16.5336 15.4957C16.9186 15.3924 17.2693 15.1961 17.5521 14.9256C17.8348 14.6552 18.04 14.3197 18.148 13.9514C18.4139 12.5434 18.5437 11.1116 18.5344 9.68038C18.5437 8.23971 18.4168 6.80569 18.148 5.38884V5.38884ZM7.42188 12.3329V7.01625L12.2584 9.68038L7.42188 12.3329Z" fill="white"/>
</g>
<defs>
<clipPath id="clip0_120_888">
<rect width="18.5373" height="17.7313" fill="white" transform="translate(0 0.805908)"/>
</clipPath>
</defs>
</svg>
