<svg width="19" height="19" viewBox="0 0 19 19" fill="none" xmlns="http://www.w3.org/2000/svg">
<g clip-path="url(#clip0_120_722)">
<path d="M18.148 5.38896C18.0404 5.02089 17.8352 4.68564 17.5524 4.41567C17.2695 4.14571 16.9186 3.95017 16.5336 3.848C15.0882 3.47841 9.27793 3.47841 9.27793 3.47841C9.27793 3.47841 3.47865 3.46955 2.01825 3.848C1.63384 3.95062 1.28359 4.14636 1.00138 4.4163C0.719169 4.68624 0.51453 5.02126 0.407246 5.38896C0.132778 6.80427 -0.00240222 8.24107 0.00347987 9.6805C0.000801755 11.113 0.13596 12.5427 0.407246 13.9515C0.514878 14.3194 0.719577 14.6547 1.00169 14.9251C1.28381 15.1956 1.63386 15.3921 2.01825 15.4958C3.46359 15.8654 9.27793 15.8654 9.27793 15.8654C9.27793 15.8654 15.0737 15.8654 16.5336 15.4958C16.9186 15.3925 17.2693 15.1962 17.5521 14.9258C17.8348 14.6553 18.04 14.3198 18.148 13.9515C18.4139 12.5436 18.5437 11.1118 18.5344 9.6805C18.5437 8.23983 18.4168 6.80581 18.148 5.38896V5.38896ZM7.42188 12.333V7.01637L12.2584 9.6805L7.42188 12.333Z" fill="#D841E3"/>
</g>
<defs>
<clipPath id="clip0_120_722">
<rect width="18.5373" height="17.7313" fill="white" transform="translate(0 0.805969)"/>
</clipPath>
</defs>
</svg>
